<svg xmlns="http://www.w3.org/2000/svg" xmlns:xlink="http://www.w3.org/1999/xlink" viewBox="0 0 418.52 441.52"><defs><style>.cls-1{fill:none;}.cls-2{fill:#333;}.cls-3{opacity:0.1;}.cls-4{clip-path:url(#clip-path);}.cls-5{fill:#ccc;}.cls-6{fill:#fff;}.cls-7{fill:#fe340c;}</style><clipPath id="clip-path"><rect class="cls-1" x="12.37" y="24.4" width="392" height="392"/></clipPath></defs><title>IFM black</title><g id="Layer_2" data-name="Layer 2"><g id="Layer_1-2" data-name="Layer 1"><rect class="cls-2" x="12.37" y="24.4" width="392" height="392"/><g class="cls-3"><g class="cls-4"><path class="cls-5" d="M309.38,113.22q-14.24-15.3-14.23-43.38V0h32.56V68.76Q327.71,99,349.59,99q21.71,0,21.71-30.24V0h32.07V69.84q0,28.08-14.23,43.38t-39.88,15.3Q323.59,128.52,309.38,113.22Z"/><path class="cls-5" d="M31.38,113.22Q17.15,97.92,17.15,69.84V0H49.71V68.76Q49.71,99,71.59,99,93.3,99,93.3,68.76V0h32.07V69.84q0,28.08-14.23,43.38t-39.88,15.3Q45.6,128.52,31.38,113.22Z"/><path class="cls-5" d="M250.14,15.3q14.24,15.3,14.23,43.38v69.84H231.81V59.76q0-30.24-21.88-30.24-21.7,0-21.71,30.24v68.76H156.15V58.68q0-28.08,14.23-43.38T210.26,0Q235.93,0,250.14,15.3Z"/><path class="cls-5" d="M111.14,328.3q14.24,15.3,14.23,43.38v69.84H92.81V372.76q0-30.24-21.88-30.24-21.71,0-21.71,30.24v68.76H17.15V371.68q0-28.08,14.23-43.38T71.26,313Q96.93,313,111.14,328.3Z"/><path class="cls-5" d="M389.14,328.3q14.24,15.3,14.23,43.38v69.84H370.81V372.76q0-30.24-21.88-30.24-21.71,0-21.71,30.24v68.76H295.15V371.68q0-28.08,14.23-43.38T349.26,313Q374.93,313,389.14,328.3Z"/><path class="cls-5" d="M305.3,180.38q15.3-14.24,43.38-14.23h69.84v32.56H349.76q-30.24,0-30.24,21.88,0,21.71,30.24,21.71h68.76v32.07H348.68q-28.08,0-43.38-14.23T290,220.26Q290,194.6,305.3,180.38Z"/><path class="cls-5" d="M113.22,260.14q-15.3,14.24-43.38,14.23H0V241.81H68.76Q99,241.81,99,219.93q0-21.7-30.24-21.71H0V166.15H69.84q28.08,0,43.38,14.23t15.3,39.88Q128.52,245.93,113.22,260.14Z"/><path class="cls-5" d="M170.38,426.22q-14.24-15.3-14.23-43.38V313h32.56v68.76q0,30.24,21.88,30.24,21.71,0,21.71-30.24V313h32.07v69.84q0,28.08-14.23,43.38t-39.88,15.3Q184.6,441.52,170.38,426.22Z"/><rect class="cls-5" x="187.04" y="165.06" width="46.67" height="46.67" transform="translate(194.83 -93.57) rotate(45)"/><rect class="cls-5" x="187.04" y="251.06" width="46.67" height="46.67" transform="translate(255.65 -68.39) rotate(45)"/></g></g><path class="cls-6" d="M172.58,93.42,143.85,161.5H123.48L94.88,93.42h20.37l18.86,46.31,19.48-46.31Z"/><path class="cls-6" d="M235.6,133H184.09a16,16,0,0,0,6.58,10,21.77,21.77,0,0,0,12.91,3.67,26,26,0,0,0,9.43-1.58,22.71,22.71,0,0,0,7.65-5l10.51,11.39q-9.63,11-28.1,11A44.36,44.36,0,0,1,182.7,158,32.88,32.88,0,0,1,169,145.55a34.27,34.27,0,0,1-4.81-18.09,34.79,34.79,0,0,1,4.75-18A33.2,33.2,0,0,1,182,96.9a40.3,40.3,0,0,1,36.64-.19,31.41,31.41,0,0,1,12.72,12.34A36.76,36.76,0,0,1,236,127.71C236,128,235.85,129.74,235.6,133Zm-46.19-21.9a16.15,16.15,0,0,0-5.57,10.38h33.53a16.31,16.31,0,0,0-5.56-10.31,16.64,16.64,0,0,0-11.14-3.86A17,17,0,0,0,189.41,111.13Z"/><path class="cls-6" d="M184.5,304.93q7.53,7.53,7.53,22.59v39H172.29V330.56q0-8.1-3.35-12.08t-9.56-4q-7,0-11,4.49t-4.05,13.35V366.5H124.58V330.56q0-16.06-12.91-16.07A13.94,13.94,0,0,0,100.79,319q-4,4.5-4.05,13.35V366.5H77V298.42H95.86v7.84a25,25,0,0,1,9.3-6.58,31.24,31.24,0,0,1,12.08-2.27,29.26,29.26,0,0,1,13,2.84,23.13,23.13,0,0,1,9.36,8.29,28,28,0,0,1,10.57-8.22,33.33,33.33,0,0,1,14-2.91Q177,297.41,184.5,304.93Z"/><path class="cls-6" d="M267.33,338H215.82a16,16,0,0,0,6.58,10,21.77,21.77,0,0,0,12.91,3.67,26,26,0,0,0,9.43-1.58,22.85,22.85,0,0,0,7.66-5l10.5,11.39q-9.61,11-28.1,11A44.36,44.36,0,0,1,214.43,363a32.88,32.88,0,0,1-13.67-12.47A34.36,34.36,0,0,1,196,332.46a34.85,34.85,0,0,1,4.75-18,33.2,33.2,0,0,1,13-12.52,40.36,40.36,0,0,1,36.63-.19,31.41,31.41,0,0,1,12.72,12.34,36.76,36.76,0,0,1,4.62,18.66C267.71,333,267.58,334.74,267.33,338Zm-46.19-21.9a16.18,16.18,0,0,0-5.57,10.38h33.54a16.37,16.37,0,0,0-5.57-10.31,16.62,16.62,0,0,0-11.14-3.86A17,17,0,0,0,221.14,316.13Z"/><path class="cls-6" d="M65.64,209.94H83.1v15.18H66.15V276.5H46.4V225.12H35.9V209.94H46.4v-3q0-11.64,6.9-18.48t19.43-6.83a36.37,36.37,0,0,1,8.41.95,20.51,20.51,0,0,1,6.65,2.72l-5.19,14.3a13.55,13.55,0,0,0-8-2.41q-9,0-9,9.87Z"/><path class="cls-6" d="M95.7,273a33.36,33.36,0,0,1-13.36-12.47,36.51,36.51,0,0,1,0-36.19A33.4,33.4,0,0,1,95.7,211.9,40.72,40.72,0,0,1,115,207.4a40.41,40.41,0,0,1,19.24,4.5,33.54,33.54,0,0,1,13.29,12.46,36.44,36.44,0,0,1,0,36.19A33.49,33.49,0,0,1,134.23,273,40.4,40.4,0,0,1,115,277.51,40.72,40.72,0,0,1,95.7,273Zm31.76-16.83q4.88-5.13,4.87-13.73t-4.87-13.73A16.44,16.44,0,0,0,115,223.6a16.62,16.62,0,0,0-12.52,5.13q-4.93,5.13-4.94,13.73t4.94,13.73A16.61,16.61,0,0,0,115,261.31,16.43,16.43,0,0,0,127.46,256.19Z"/><path class="cls-6" d="M224.59,208.42V276.5H205.86v-8.1a26.25,26.25,0,0,1-9.37,6.77,29.48,29.48,0,0,1-11.77,2.34q-13.41,0-21.26-7.72t-7.84-22.9V208.42h19.74V244q0,16.46,13.79,16.45a14.82,14.82,0,0,0,11.39-4.62q4.31-4.62,4.3-13.73V208.42Z"/><path class="cls-6" d="M295.26,215q7.78,7.59,7.78,22.52v39H283.3V240.56q0-8.1-3.54-12.08t-10.25-4q-7.47,0-11.9,4.62t-4.42,13.73V276.5H233.44V208.42H252.3v8a26.09,26.09,0,0,1,9.74-6.64,34,34,0,0,1,12.78-2.35Q287.48,207.4,295.26,215Z"/><path class="cls-6" d="M381.5,182.6v93.9H362.65v-7.85q-7.35,8.87-21.26,8.86a35.34,35.34,0,0,1-17.4-4.3,30.77,30.77,0,0,1-12.21-12.28,40.74,40.74,0,0,1,0-37A30.8,30.8,0,0,1,324,211.71a35.35,35.35,0,0,1,17.4-4.31q13,0,20.37,8.23v-33Zm-24.29,73.59q4.94-5.13,4.93-13.73t-4.93-13.73a17.71,17.71,0,0,0-24.93,0q-4.93,5.13-4.94,13.73t4.94,13.73a17.73,17.73,0,0,0,24.93,0Z"/><path class="cls-6" d="M37.39,72.92h20.5V161.5H37.39Z"/><rect class="cls-7" x="66.51" y="73.67" width="25.46" height="25.46" transform="translate(84.3 -30.73) rotate(45)"/><rect class="cls-7" x="40.51" y="341.67" width="25.46" height="25.46" transform="translate(266.19 66.15) rotate(45)"/></g></g></svg>